# xmcd CD database file
#
# Track frame offsets:
#	150
#	16185
#	35392
#	51727
#	67422
#	90165
#	104462
#	125465
#	136910
#	153380
#
# Disc length: 2299 seconds
#
# Revision: 0
# Processed by: cddbd v1.5.2PL0 Copyright (c) Steve Scherf et al.
# Submitted via: CDex 1.70beta2
#
DISCID=8508f90a
DTITLE=Debonnaire - Tangled up
DYEAR=1993
DGENRE=New Age
TTITLE0=Wade in your eyes
TTITLE1=Cut me up
TTITLE2=Down the line
TTITLE3=Ride for a fall
TTITLE4=It won't be wrong
TTITLE5=Word crimes
TTITLE6=Unshaded magic
TTITLE7=Through the clouds
TTITLE8=Insurrection
TTITLE9=Speeding from the end
EXTD=YEAR: 1993
EXTT0=
EXTT1=
EXTT2=
EXTT3=
EXTT4=
EXTT5=
EXTT6=
EXTT7=
EXTT8=
EXTT9=
PLAYORDER=
